<svg width="17" height="17" viewBox="0 0 17 17" fill="none" xmlns="http://www.w3.org/2000/svg">
<path fill-rule="evenodd" clip-rule="evenodd" d="M15.6962 6.13473H11.3476V6.12643C10.848 6.12643 10.42 5.8075 10.2542 5.35781C10.2412 5.32461 10.2296 5.28932 10.2207 5.25473L8.945 1.27329L8.91292 1.17367C8.79824 0.881721 8.51771 0.674866 8.18871 0.674866C7.83924 0.674866 7.54369 0.908702 7.4454 1.23109H7.44404L6.15263 5.23744C6.15195 5.23882 6.15195 5.24159 6.15058 5.24366C6.13966 5.28656 6.12737 5.32737 6.11031 5.36888C5.94172 5.81234 5.51784 6.12643 5.02094 6.12643V6.13473H0.66823C0.290772 6.18869 0 6.51938 0 6.91787C0 7.17592 0.120131 7.40353 0.307154 7.54743C0.318757 7.55712 0.330361 7.56542 0.341964 7.57441L3.7227 10.0754H3.72134C4.0319 10.2884 4.23735 10.6496 4.23735 11.0591C4.23735 11.1518 4.22643 11.2418 4.20596 11.3282C4.19094 11.3974 4.1691 11.4632 4.14248 11.5261L2.86131 15.5255C2.85926 15.5304 2.85721 15.5345 2.85585 15.5394L2.84561 15.5698C2.82513 15.6411 2.81353 15.7186 2.81353 15.7974C2.81353 16.234 3.16232 16.5882 3.59233 16.5882C3.73362 16.5882 3.86604 16.5501 3.98071 16.4837L4.11449 16.3848C4.11518 16.3834 4.11586 16.3834 4.11654 16.3813L7.47066 13.9094C7.49455 13.8908 7.5198 13.8721 7.54438 13.8548C7.72867 13.7296 7.9505 13.6583 8.18871 13.6583C8.41874 13.6583 8.63375 13.7254 8.81394 13.8423C8.85558 13.8679 8.89449 13.897 8.93203 13.9295C8.93271 13.9302 8.93476 13.9302 8.93476 13.9316L12.2698 16.3952L12.364 16.465C12.3653 16.4657 12.3667 16.4678 12.3687 16.4685C12.4868 16.5404 12.6254 16.5826 12.7728 16.5826C13.2021 16.5826 13.5509 16.2284 13.5509 15.7912C13.5509 15.7096 13.54 15.63 13.5161 15.556C13.5127 15.5442 13.5086 15.5318 13.5045 15.5193L12.2165 11.504C12.196 11.4521 12.1783 11.3988 12.166 11.3442C12.1435 11.2528 12.1305 11.156 12.1305 11.057C12.1305 10.6821 12.3025 10.3472 12.5715 10.13C12.5994 10.1065 12.6295 10.085 12.6602 10.0643L16.0027 7.59655H16.0034L16.1051 7.52114C16.273 7.37586 16.3781 7.15932 16.3781 6.91926C16.3781 6.51593 16.0812 6.18316 15.6962 6.13473Z" fill="#FFB19D"/>
</svg>
