<svg width="17" height="17" viewBox="0 0 17 17" fill="none" xmlns="http://www.w3.org/2000/svg">
<path fill-rule="evenodd" clip-rule="evenodd" d="M16.2087 6.13473H11.8601V6.12643C11.3604 6.12643 10.9325 5.8075 10.7666 5.35781C10.7536 5.32461 10.742 5.28932 10.7332 5.25473L9.45745 1.27329L9.42537 1.17367C9.3107 0.881721 9.03016 0.674866 8.70117 0.674866C8.35169 0.674866 8.05614 0.908702 7.95785 1.23109H7.95649L6.66508 5.23744C6.6644 5.23882 6.6644 5.24159 6.66303 5.24366C6.65211 5.28656 6.63982 5.32737 6.62276 5.36888C6.45417 5.81234 6.03029 6.12643 5.53339 6.12643V6.13473H1.18068C0.803223 6.18869 0.512451 6.51938 0.512451 6.91787C0.512451 7.17592 0.632582 7.40353 0.819605 7.54743C0.831208 7.55712 0.842812 7.56542 0.854416 7.57441L4.23515 10.0754H4.23379C4.54435 10.2884 4.74981 10.6496 4.74981 11.0591C4.74981 11.1518 4.73888 11.2418 4.71841 11.3282C4.70339 11.3974 4.68155 11.4632 4.65493 11.5261L3.37376 15.5255C3.37171 15.5304 3.36966 15.5345 3.3683 15.5394L3.35806 15.5698C3.33758 15.6411 3.32598 15.7186 3.32598 15.7974C3.32598 16.234 3.67477 16.5882 4.10478 16.5882C4.24607 16.5882 4.37849 16.5501 4.49316 16.4837L4.62694 16.3848C4.62763 16.3834 4.62831 16.3834 4.62899 16.3813L7.98311 13.9094C8.007 13.8908 8.03225 13.8721 8.05683 13.8548C8.24112 13.7296 8.46295 13.6583 8.70117 13.6583C8.93119 13.6583 9.1462 13.7254 9.3264 13.8423C9.36803 13.8679 9.40694 13.897 9.44448 13.9295C9.44516 13.9302 9.44721 13.9302 9.44721 13.9316L12.7822 16.3952L12.8764 16.465C12.8778 16.4657 12.8791 16.4678 12.8812 16.4685C12.9993 16.5404 13.1378 16.5826 13.2853 16.5826C13.7146 16.5826 14.0634 16.2284 14.0634 15.7912C14.0634 15.7096 14.0525 15.63 14.0286 15.556C14.0252 15.5442 14.0211 15.5318 14.017 15.5193L12.729 11.504C12.7085 11.4521 12.6908 11.3988 12.6785 11.3442C12.6559 11.2528 12.643 11.156 12.643 11.057C12.643 10.6821 12.815 10.3472 13.0839 10.13C13.1119 10.1065 13.1419 10.085 13.1726 10.0643L16.5152 7.59655H16.5158L16.6175 7.52114C16.7854 7.37586 16.8906 7.15932 16.8906 6.91926C16.8906 6.51593 16.5936 6.18316 16.2087 6.13473Z" fill="#E2E2EF"/>
</svg>
