<svg width="16" height="16" viewBox="0 0 16 16" fill="none" xmlns="http://www.w3.org/2000/svg">
<path fill-rule="evenodd" clip-rule="evenodd" d="M12.1365 11.1652L15.8668 14.8955L14.7724 15.9902L11.0152 12.2328C9.84257 13.1203 8.42141 13.6013 6.92541 13.6013C5.11045 13.6013 3.40386 12.8945 2.12051 11.6108C-0.529297 8.9613 -0.529555 4.65007 2.12025 2.00026C3.40386 0.71665 5.11045 0.0098114 6.92541 0.0098114C8.74064 0.0098114 10.4472 0.71665 11.7308 2.00026C14.2369 4.50607 14.3711 8.49781 12.1365 11.1652ZM3.21496 3.09497C1.16903 5.14117 1.16928 8.46994 3.21522 10.5161C4.20619 11.5071 5.52386 12.0529 6.92541 12.0529C8.32722 12.0529 9.6449 11.5071 10.6361 10.5159C12.6821 8.46968 12.6821 5.14091 10.6361 3.09523C9.6449 2.104 8.32722 1.5582 6.92541 1.5582C5.52386 1.5582 4.20619 2.104 3.21496 3.09497Z" fill="#525464"/>
</svg>
